<svg width="49" height="16" viewBox="0 0 49 16" fill="none" xmlns="http://www.w3.org/2000/svg">
<g clip-path="url(#clip0_2228_119)">
<path d="M44.9423 8.34614H45.6543L45.6433 7.70114C45.6323 7.10914 45.6233 7.04214 45.5443 6.88114C45.4193 6.62814 45.2353 6.51514 44.9433 6.51514C44.5923 6.51514 44.3703 6.68514 44.2653 7.03314C44.2203 7.18114 44.1733 8.20014 44.2073 8.28814C44.2263 8.33714 44.3283 8.34614 44.9423 8.34614ZM40.1823 6.87914C40.1399 6.79023 40.0718 6.71615 39.9867 6.66656C39.9016 6.61697 39.8035 6.59417 39.7053 6.60114C39.5192 6.61535 39.3419 6.68619 39.1973 6.80414L39.0703 6.90114V11.5351L39.1973 11.6321C39.4853 11.8521 39.8013 11.8981 40.0193 11.7521C40.1096 11.6884 40.1753 11.5955 40.2053 11.4891C40.2623 11.3251 40.2673 11.1141 40.2603 9.16414C40.2523 7.13214 40.2483 7.01214 40.1823 6.87914Z" fill="#9747FF"/>
<path d="M49.0135 4.79121C48.8715 3.09021 48.7585 2.53821 48.4085 1.82921C47.9435 0.890213 47.2725 0.395213 46.3165 0.286213C45.5775 0.202213 42.7955 0.0832132 40.2225 0.0262132C35.7665 -0.0727868 28.4405 0.118213 27.5045 0.357213C27.0867 0.459734 26.7071 0.679741 26.4105 0.991213C25.8195 1.57921 25.4665 2.42321 25.3255 3.59121C25.0025 6.25721 24.9955 9.47721 25.3065 12.2402C25.4405 13.4282 25.7165 14.2002 26.2345 14.8362C26.5575 15.2332 27.1155 15.5702 27.6135 15.6712C27.9635 15.7422 29.7135 15.8402 32.2635 15.9312C32.6435 15.9452 33.6485 15.9682 34.4985 15.9832C36.2685 16.0142 39.5235 15.9962 41.3845 15.9442C42.6365 15.9092 44.9185 15.8162 45.3455 15.7832C45.4655 15.7742 45.7435 15.7562 45.9635 15.7442C46.7025 15.7022 47.1725 15.5482 47.6135 15.2012C48.1845 14.7522 48.6265 13.9232 48.8135 12.9502C48.9905 12.0302 49.1085 10.3912 49.1325 8.53021C49.1525 6.97521 49.1255 6.13721 49.0135 4.78921V4.79121ZM31.2695 4.17521L30.4415 4.18521L30.4055 13.0152L29.6875 13.0242C29.1325 13.0322 28.9635 13.0232 28.9505 12.9882C28.9405 12.9632 28.9295 10.9722 28.9245 8.56421L28.9155 4.18521L27.2985 4.16521V2.78521L32.0775 2.80421L32.0975 4.16421L31.2695 4.17421V4.17521ZM36.3465 9.23621V13.0332H35.0385V12.6332C35.0385 12.3322 35.0275 12.2332 34.9915 12.2332C34.9655 12.2332 34.8475 12.3322 34.7285 12.4532C34.4695 12.7162 34.1635 12.9272 33.9015 13.0252C33.3595 13.2282 32.8455 13.1092 32.6265 12.7322C32.4255 12.3872 32.4225 12.3092 32.4225 8.72721V5.43721H33.7295L33.7395 8.53521C33.7495 11.5792 33.7505 11.6352 33.8235 11.7592C33.9205 11.9232 34.0675 11.9682 34.3015 11.9032C34.4395 11.8652 34.5335 11.7982 34.7565 11.5762L35.0385 11.2962V5.43721H36.3465V9.23421V9.23621ZM41.4485 12.4912C41.3335 12.7482 41.0765 12.9992 40.8655 13.0612C40.3165 13.2232 39.8755 13.0912 39.3665 12.6122C39.2085 12.4632 39.0615 12.3432 39.0395 12.3432C39.0125 12.3432 38.9985 12.4592 38.9985 12.6882V13.0332H37.6905V2.78521H38.9985V4.45721C38.9985 5.37621 39.0105 6.12921 39.0255 6.12921C39.0405 6.12921 39.1785 6.00721 39.3325 5.85921C39.6865 5.51821 39.9815 5.36821 40.3565 5.34021C41.0255 5.28921 41.4245 5.63421 41.6065 6.42021C41.6635 6.66521 41.6685 6.94521 41.6685 9.21821C41.6685 11.9862 41.6695 11.9982 41.4485 12.4912ZM46.9835 10.9712C46.9767 11.2152 46.951 11.4582 46.9065 11.6982C46.7245 12.3722 46.2405 12.8502 45.5405 13.0462C44.5985 13.3102 43.5605 12.8782 43.1465 12.0492C42.9145 11.5842 42.9055 11.4912 42.9055 9.21821C42.9055 7.36521 42.9125 7.13721 42.9715 6.88421C43.1395 6.16921 43.5555 5.70621 44.2605 5.44921C44.4645 5.37521 44.6775 5.33621 44.8905 5.33221C45.6515 5.31621 46.4055 5.72521 46.7225 6.39121C46.9355 6.84021 46.9625 7.03321 46.9835 8.29921L47.0025 9.43521L44.2135 9.45421L44.2035 10.2172C44.1885 11.2942 44.2615 11.6252 44.5525 11.8202C44.7965 11.9852 45.1725 11.9722 45.3765 11.7932C45.5685 11.6252 45.6225 11.4442 45.6415 10.9162L45.6585 10.4532H47.0055L46.9835 10.9712Z" fill="#9747FF"/>
</g>
<path d="M5.40329 3.54545H6.82516V10.2486C6.82516 10.8549 6.70513 11.3735 6.46508 11.8043C6.2281 12.2352 5.89417 12.5645 5.4633 12.7923C5.03243 13.0169 4.52769 13.1293 3.9491 13.1293C3.41666 13.1293 2.93809 13.0323 2.51337 12.8384C2.09173 12.6445 1.75781 12.3629 1.5116 11.9936C1.26846 11.6212 1.14689 11.1688 1.14689 10.6364H2.56415C2.56415 10.898 2.62417 11.1242 2.7442 11.315C2.8673 11.5058 3.03503 11.6551 3.24739 11.7628C3.46283 11.8674 3.70904 11.9197 3.98603 11.9197C4.28764 11.9197 4.54308 11.8567 4.75236 11.7305C4.96472 11.6012 5.1263 11.4119 5.23709 11.1626C5.34789 10.9134 5.40329 10.6087 5.40329 10.2486V3.54545ZM12.2425 10.0593V5.90909H13.6274V13H12.2702V11.772H12.1963C12.0332 12.1506 11.7716 12.466 11.4115 12.7184C11.0545 12.9677 10.6098 13.0923 10.0773 13.0923C9.62184 13.0923 9.21867 12.9923 8.86781 12.7923C8.52004 12.5891 8.24613 12.2891 8.04608 11.892C7.84911 11.495 7.75063 11.0041 7.75063 10.4194V5.90909H9.13095V10.2532C9.13095 10.7364 9.26483 11.1211 9.53259 11.4073C9.80034 11.6935 10.1481 11.8366 10.5759 11.8366C10.8344 11.8366 11.0914 11.772 11.3469 11.6428C11.6054 11.5135 11.8193 11.3181 11.9886 11.0565C12.1609 10.7949 12.2455 10.4625 12.2425 10.0593ZM15.8224 3.54545V13H14.4421V3.54545H15.8224ZM16.6394 13V5.90909H18.0197V13H16.6394ZM17.3365 4.81499C17.0964 4.81499 16.8902 4.73497 16.7179 4.57493C16.5486 4.41181 16.464 4.21792 16.464 3.99325C16.464 3.76551 16.5486 3.57161 16.7179 3.41158C16.8902 3.24846 17.0964 3.1669 17.3365 3.1669C17.5765 3.1669 17.7812 3.24846 17.9505 3.41158C18.1228 3.57161 18.209 3.76551 18.209 3.99325C18.209 4.21792 18.1228 4.41181 17.9505 4.57493C17.7812 4.73497 17.5765 4.81499 17.3365 4.81499ZM20.9002 13.157C20.4509 13.157 20.0447 13.0739 19.6815 12.9077C19.3183 12.7384 19.0306 12.4937 18.8182 12.1737C18.6089 11.8536 18.5043 11.4612 18.5043 10.9964C18.5043 10.5964 18.5812 10.267 18.7351 10.0085C18.889 9.75 19.0967 9.54534 19.3583 9.39453C19.6199 9.24373 19.9123 9.12985 20.2355 9.05291C20.5586 8.97597 20.8879 8.9175 21.2234 8.87749C21.6481 8.82824 21.9928 8.78823 22.2575 8.75746C22.5222 8.7236 22.7145 8.66974 22.8346 8.59588C22.9546 8.52202 23.0146 8.40199 23.0146 8.2358V8.20348C23.0146 7.80031 22.9007 7.48793 22.673 7.26633C22.4483 7.04474 22.1128 6.93395 21.6666 6.93395C21.2019 6.93395 20.8356 7.03705 20.5679 7.24325C20.3032 7.44638 20.1201 7.67259 20.0185 7.92188L18.7213 7.62642C18.8752 7.19555 19.0998 6.84777 19.3953 6.5831C19.6938 6.31534 20.037 6.12145 20.4247 6.00142C20.8125 5.87831 21.2203 5.81676 21.6481 5.81676C21.9313 5.81676 22.2313 5.85062 22.5483 5.91832C22.8684 5.98295 23.1669 6.10298 23.4439 6.27841C23.724 6.45383 23.9533 6.70466 24.1318 7.03089C24.3103 7.35405 24.3995 7.77415 24.3995 8.29119V13H23.0515V12.0305H22.9961C22.9069 12.209 22.773 12.3845 22.5945 12.5568C22.416 12.7292 22.1867 12.8723 21.9066 12.9862C21.6266 13.1 21.2911 13.157 20.9002 13.157ZM21.2003 12.049C21.5819 12.049 21.9082 11.9736 22.179 11.8228C22.4529 11.672 22.6607 11.475 22.8022 11.2319C22.9469 10.9857 23.0192 10.7225 23.0192 10.4425V9.52841C22.97 9.57765 22.8746 9.62382 22.733 9.6669C22.5945 9.70691 22.436 9.74231 22.2575 9.77308C22.079 9.80078 21.9051 9.82694 21.7358 9.85156C21.5666 9.87311 21.425 9.89157 21.3111 9.90696C21.0434 9.94081 20.7987 9.99775 20.5771 10.0778C20.3586 10.1578 20.1832 10.2732 20.0508 10.424C19.9216 10.5717 19.8569 10.7687 19.8569 11.0149C19.8569 11.3565 19.9831 11.6151 20.2355 11.7905C20.4878 11.9628 20.8095 12.049 21.2003 12.049Z" fill="#9747FF"/>
<defs>
<clipPath id="clip0_2228_119">
<rect width="40" height="16" fill="white" transform="translate(9)"/>
</clipPath>
</defs>
</svg>
