<svg width="118" height="38" viewBox="0 0 118 38" fill="none" xmlns="http://www.w3.org/2000/svg">
<g clip-path="url(#clip0_2228_119)">
<path d="M108.484 20.037H110.155L110.13 18.5232C110.104 17.1338 110.083 16.9766 109.897 16.5987C109.604 16.005 109.172 15.7397 108.487 15.7397C107.663 15.7397 107.142 16.1387 106.895 16.9555C106.79 17.3028 106.68 19.6943 106.759 19.9009C106.804 20.0159 107.043 20.037 108.484 20.037ZM97.3129 16.594C97.2135 16.3854 97.0535 16.2115 96.8538 16.0951C96.6541 15.9787 96.424 15.9252 96.1934 15.9416C95.7567 15.9749 95.3406 16.1412 95.0012 16.418L94.7031 16.6457V27.5214L95.0012 27.749C95.6771 28.2654 96.4187 28.3733 96.9304 28.0307C97.1424 27.8811 97.2965 27.6631 97.3669 27.4134C97.5007 27.0285 97.5124 26.5333 97.496 21.9568C97.4772 17.1878 97.4678 16.9062 97.3129 16.594Z" fill="#9747FF"/>
<path d="M118.034 11.6936C117.701 7.70144 117.436 6.40593 116.614 4.74195C115.523 2.53818 113.948 1.37644 111.704 1.12062C109.97 0.923482 103.441 0.644196 97.4022 0.510421C86.9443 0.278074 69.7506 0.726339 67.5539 1.28726C66.5735 1.52787 65.6825 2.04421 64.9863 2.77522C63.5993 4.15522 62.7708 6.13603 62.4399 8.87726C61.6818 15.1342 61.6654 22.6913 62.3953 29.1759C62.7098 31.9641 63.3575 33.7759 64.5733 35.2686C65.3313 36.2003 66.6409 36.9912 67.8097 37.2283C68.6311 37.3949 72.7383 37.6249 78.723 37.8385C79.6148 37.8713 81.9735 37.9253 83.9684 37.9605C88.1224 38.0333 95.7617 37.991 100.129 37.869C103.068 37.7869 108.423 37.5686 109.426 37.4911C109.707 37.47 110.36 37.4278 110.876 37.3996C112.61 37.301 113.713 36.9396 114.748 36.1252C116.089 35.0714 117.126 33.1258 117.565 30.8423C117.98 28.6831 118.257 24.8364 118.313 20.4688C118.36 16.8193 118.297 14.8526 118.034 11.6889V11.6936ZM76.3901 10.2479L74.4468 10.2713L74.3623 30.9948L72.6772 31.0159C71.3747 31.0347 70.9781 31.0136 70.9475 30.9314C70.9241 30.8728 70.8983 26.2 70.8865 20.5486L70.8654 10.2713L67.0704 10.2244V6.98563L78.2864 7.03022L78.3334 10.2221L76.3901 10.2455V10.2479ZM88.3055 22.1257V31.0371H85.2357V30.0983C85.2357 29.3919 85.2099 29.1595 85.1254 29.1595C85.0644 29.1595 84.7874 29.3919 84.5082 29.6758C83.9003 30.2931 83.1821 30.7883 82.5672 31.0183C81.2952 31.4947 80.0889 31.2154 79.5749 30.3306C79.1032 29.5209 79.0961 29.3379 79.0961 20.9311V13.2097H82.1636L82.187 20.4805C82.2105 27.6246 82.2128 27.756 82.3842 28.0471C82.6118 28.432 82.9568 28.5376 83.506 28.385C83.8299 28.2958 84.0505 28.1386 84.5739 27.6176L85.2357 26.9604V13.2097H88.3055V22.121V22.1257ZM100.28 29.765C100.01 30.3682 99.4065 30.9573 98.9113 31.1028C97.6228 31.483 96.5879 31.1732 95.3933 30.049C95.0224 29.6993 94.6774 29.4177 94.6258 29.4177C94.5624 29.4177 94.5296 29.6899 94.5296 30.2274V31.0371H91.4598V6.98563H94.5296V10.9097C94.5296 13.0665 94.5577 14.8338 94.593 14.8338C94.6282 14.8338 94.952 14.5475 95.3135 14.2001C96.1443 13.3998 96.8366 13.0478 97.7167 12.9821C99.2868 12.8624 100.223 13.6721 100.65 15.5167C100.784 16.0917 100.796 16.7489 100.796 22.0835C100.796 28.5798 100.798 28.608 100.28 29.765ZM113.27 26.1977C113.254 26.7702 113.194 27.3407 113.089 27.9039C112.662 29.4857 111.526 30.6076 109.883 31.0676C107.672 31.6872 105.236 30.6733 104.265 28.7277C103.72 27.6363 103.699 27.4181 103.699 22.0835C103.699 17.7346 103.716 17.1995 103.854 16.6057C104.248 14.9277 105.225 13.841 106.879 13.2379C107.358 13.0642 107.858 12.9727 108.358 12.9633C110.144 12.9257 111.913 13.8856 112.657 15.4487C113.157 16.5025 113.221 16.9554 113.27 19.9266L113.314 22.5928L106.769 22.6374L106.745 24.4281C106.71 26.9557 106.882 27.7326 107.564 28.1902C108.137 28.5775 109.02 28.547 109.498 28.1269C109.949 27.7326 110.076 27.3078 110.12 26.0686L110.16 24.982H113.322L113.27 26.1977Z" fill="#9747FF"/>
</g>
<path d="M11.8106 7.72727H15.3106V24.2273C15.3106 25.7197 15.0151 26.9962 14.4242 28.0568C13.8409 29.1174 13.0189 29.928 11.9583 30.4886C10.8977 31.0417 9.6553 31.3182 8.23106 31.3182C6.92045 31.3182 5.74242 31.0795 4.69696 30.6023C3.65909 30.125 2.83712 29.4318 2.23106 28.5227C1.63257 27.6061 1.33333 26.4924 1.33333 25.1818H4.82196C4.82196 25.8258 4.96969 26.3826 5.26515 26.8523C5.56818 27.322 5.98106 27.6894 6.50378 27.9545C7.03409 28.2121 7.64015 28.3409 8.32197 28.3409C9.06439 28.3409 9.69318 28.1856 10.2083 27.875C10.7311 27.5568 11.1288 27.0909 11.4015 26.4773C11.6742 25.8636 11.8106 25.1136 11.8106 24.2273V7.72727ZM28.6455 23.7614V13.5455H32.0546V31H28.7137V27.9773H28.5319C28.1303 28.9091 27.4864 29.6856 26.6 30.3068C25.7212 30.9205 24.6265 31.2273 23.3159 31.2273C22.1947 31.2273 21.2023 30.9811 20.3387 30.4886C19.4826 29.9886 18.8084 29.25 18.3159 28.2727C17.8311 27.2955 17.5887 26.0871 17.5887 24.6477V13.5455H20.9864V24.2386C20.9864 25.428 21.3159 26.375 21.975 27.0795C22.6341 27.7841 23.4902 28.1364 24.5432 28.1364C25.1796 28.1364 25.8122 27.9773 26.4409 27.6591C27.0773 27.3409 27.6038 26.8598 28.0205 26.2159C28.4447 25.572 28.6531 24.7538 28.6455 23.7614ZM37.4576 7.72727V31H34.0599V7.72727H37.4576ZM39.4687 31V13.5455H42.8664V31H39.4687ZM41.1846 10.8523C40.5937 10.8523 40.0861 10.6553 39.6619 10.2614C39.2452 9.85985 39.0369 9.38257 39.0369 8.82954C39.0369 8.26894 39.2452 7.79167 39.6619 7.39773C40.0861 6.99621 40.5937 6.79545 41.1846 6.79545C41.7755 6.79545 42.2793 6.99621 42.6959 7.39773C43.1202 7.79167 43.3323 8.26894 43.3323 8.82954C43.3323 9.38257 43.1202 9.85985 42.6959 10.2614C42.2793 10.6553 41.7755 10.8523 41.1846 10.8523ZM49.957 31.3864C48.8509 31.3864 47.8509 31.1818 46.957 30.7727C46.063 30.3561 45.3547 29.7538 44.832 28.9659C44.3168 28.178 44.0592 27.2121 44.0592 26.0682C44.0592 25.0833 44.2486 24.2727 44.6274 23.6364C45.0062 23 45.5176 22.4962 46.1615 22.125C46.8055 21.7538 47.5251 21.4735 48.3206 21.2841C49.1161 21.0947 49.9267 20.9508 50.7524 20.8523C51.7979 20.7311 52.6464 20.6326 53.2979 20.5568C53.9494 20.4735 54.4229 20.3409 54.7183 20.1591C55.0138 19.9773 55.1615 19.6818 55.1615 19.2727V19.1932C55.1615 18.2008 54.8812 17.4318 54.3206 16.8864C53.7676 16.3409 52.9418 16.0682 51.8433 16.0682C50.6994 16.0682 49.7979 16.322 49.1388 16.8295C48.4873 17.3295 48.0365 17.8864 47.7865 18.5L44.5933 17.7727C44.9721 16.7121 45.5251 15.8561 46.2524 15.2045C46.9873 14.5455 47.832 14.0682 48.7865 13.7727C49.7411 13.4697 50.7448 13.3182 51.7979 13.3182C52.4948 13.3182 53.2335 13.4015 54.0138 13.5682C54.8017 13.7273 55.5365 14.0227 56.2183 14.4545C56.9077 14.8864 57.4721 15.5038 57.9115 16.3068C58.3509 17.1023 58.5706 18.1364 58.5706 19.4091V31H55.2524V28.6136H55.1161C54.8964 29.053 54.5668 29.4848 54.1274 29.9091C53.688 30.3333 53.1236 30.6856 52.4342 30.9659C51.7448 31.2462 50.9191 31.3864 49.957 31.3864ZM50.6956 28.6591C51.635 28.6591 52.438 28.4735 53.1047 28.1023C53.7789 27.7311 54.2903 27.2462 54.6388 26.6477C54.9948 26.0417 55.1729 25.3939 55.1729 24.7045V22.4545C55.0517 22.5758 54.8168 22.6894 54.4683 22.7955C54.1274 22.8939 53.7373 22.9811 53.2979 23.0568C52.8585 23.125 52.4305 23.1894 52.0138 23.25C51.5971 23.303 51.2486 23.3485 50.9683 23.3864C50.3092 23.4697 49.707 23.6098 49.1615 23.8068C48.6236 24.0038 48.1918 24.2879 47.8661 24.6591C47.5479 25.0227 47.3888 25.5076 47.3888 26.1136C47.3888 26.9545 47.6994 27.5909 48.3206 28.0227C48.9418 28.447 49.7335 28.6591 50.6956 28.6591Z" fill="#9747FF"/>
<defs>
<clipPath id="clip0_2228_119">
<rect width="93.8775" height="37.551" fill="white" transform="translate(24.125 0.449219)"/>
</clipPath>
</defs>
</svg>
